<svg width="48" height="48" viewBox="0 0 48 48" fill="none" xmlns="http://www.w3.org/2000/svg">
    <rect width="48" height="48" rx="6.4" fill="#FF4400"/>
    <path opacity="0.2" d="M18.3742 28.6879C16.8003 27.5072 15.6377 25.8612 15.0512 23.9831C14.4647 22.105 14.484 20.0899 15.1063 18.2234C15.7285 16.3568 16.9223 14.7334 18.5185 13.5829C20.1147 12.4325 22.0324 11.8135 24 11.8135C25.9675 11.8135 27.8852 12.4325 29.4814 13.5829C31.0776 14.7333 32.2714 16.3568 32.8937 18.2233C33.516 20.0899 33.5353 22.1049 32.9488 23.9831C32.3623 25.8612 31.1997 27.5071 29.6258 28.6879" fill="white"/>
    <path fill-rule="evenodd" clip-rule="evenodd" d="M19.3125 32.4375C19.3125 31.9197 19.7322 31.5 20.25 31.5H27.75C28.2678 31.5 28.6875 31.9197 28.6875 32.4375C28.6875 32.9553 28.2678 33.375 27.75 33.375H20.25C19.7322 33.375 19.3125 32.9553 19.3125 32.4375Z" fill="white"/>
    <path fill-rule="evenodd" clip-rule="evenodd" d="M20.25 36.1875C20.25 35.6697 20.6697 35.25 21.1875 35.25H26.8125C27.3303 35.25 27.75 35.6697 27.75 36.1875C27.75 36.7053 27.3303 37.125 26.8125 37.125H21.1875C20.6697 37.125 20.25 36.7053 20.25 36.1875Z" fill="white"/>
    <path fill-rule="evenodd" clip-rule="evenodd" d="M24 12.751C22.2292 12.751 20.5033 13.3081 19.0667 14.3435C17.6301 15.3789 16.5557 16.84 15.9956 18.5199C15.4356 20.1998 15.4182 22.0133 15.9461 23.7036C16.4739 25.3939 17.5202 26.8753 18.9368 27.9379C19.3509 28.2486 19.4348 28.8363 19.1241 29.2505C18.8134 29.6646 18.2258 29.7485 17.8116 29.4378C16.0803 28.139 14.8015 26.3285 14.1563 24.2625C13.5112 22.1966 13.5324 19.9801 14.2169 17.9269C14.9014 15.8736 16.2146 14.0878 17.9704 12.8224C19.7262 11.5569 21.8357 10.876 24 10.876C26.1643 10.876 28.2738 11.5569 30.0296 12.8224C31.7854 14.0878 33.0986 15.8736 33.7831 17.9268C34.4676 19.98 34.4888 22.1966 33.8437 24.2625C33.1985 26.3284 31.9197 28.139 30.1884 29.4378C29.7742 29.7485 29.1866 29.6646 28.8759 29.2504C28.5652 28.8363 28.6491 28.2486 29.0632 27.9379C30.4798 26.8753 31.5261 25.3939 32.0539 23.7036C32.5818 22.0133 32.5644 20.1998 32.0044 18.5199C31.4443 16.84 30.3699 15.3788 28.9333 14.3435C27.4967 13.3081 25.7708 12.751 24 12.751Z" fill="white"/>
</svg>
